# xmcd
#
# Track frame offsets: 
#        150
#        13312
#        33662
#        49557
#        63942
#        79190
#        94310
#        111755
#        126435
#        139602
#        156805
#        173352
#        191822
#        208230
#        225475
#        240667
#
# Disc length: 3411 seconds
#
# Revision: 3
# Processed by: cddbd v1.5.2PL0 Copyright (c) Steve Scherf et al.
# Submitted via: ExactAudioCopy v0.99pb5
#
DISCID=d90d5110
DTITLE=이선희 - 2집
DYEAR=1988
DGENRE=Kpop
TTITLE0=영
TTITLE1=어둠은 걷히고
TTITLE2=알고 싶어요
TTITLE3=늦었어요
TTITLE4=잃어버린 약속
TTITLE5=이별은 정말 어려워요
TTITLE6=후회
TTITLE7=청아한 사랑
TTITLE8=그 깊은 사랑의 이별
TTITLE9=바람 속에서
TTITLE10=못잊을 너의 이름은
TTITLE11=소망
TTITLE12=도요새의 꿈
TTITLE13=이제는 떠나야지
TTITLE14=눈물
TTITLE15=그 표정의 의미
EXTD=
EXTT0=
EXTT1=
EXTT2=
EXTT3=
EXTT4=
EXTT5=
EXTT6=
EXTT7=
EXTT8=
EXTT9=
EXTT10=
EXTT11=
EXTT12=
EXTT13=
EXTT14=
EXTT15=
PLAYORDER=
